<svg width="120" height="40" viewBox="0 0 120 40" fill="none" xmlns="http://www.w3.org/2000/svg">
<g clip-path="url(#clip0_172_1475)">
<path d="M110.1 0H7.5C6.8 0 6.2 0.1 5.5 0.2C4.9 0.3 4.2 0.5 3.6 0.8C3 1.1 2.5 1.5 2 2C1.5 2.5 1.1 3 0.8 3.6C0.5 4.2 0.3 4.9 0.2 5.5C0.1 6.2 0 6.9 0 7.5V32.4C0 33.1 0.1 33.7 0.2 34.4C0.3 35.1 0.5 35.7 0.8 36.3C1.1 37 1.5 37.5 2 38C2.5 38.5 3 38.9 3.6 39.2C4.2 39.5 4.8 39.7 5.5 39.8C6.2 39.9 6.8 40 7.5 40H112.1C112.8 40 113.4 39.9 114.1 39.8C114.8 39.7 115.4 39.5 116 39.2C116.6 38.9 117.1 38.5 117.6 38C118.1 37.5 118.5 37 118.8 36.4C119.1 35.8 119.3 35.2 119.4 34.5C119.5 33.8 119.6 33.2 119.6 32.5V31.6V9.5V8.4V7.5C119.6 6.8 119.5 6.2 119.4 5.5C119.3 4.8 119.1 4.2 118.8 3.6C118.2 2.4 117.2 1.4 116 0.8C115.4 0.5 114.8 0.3 114.1 0.2C113.4 0.1 112.8 0 112.1 0H110.1V0Z" fill="#898989"/>
<path d="M8.3998 39.0999H7.4998C6.8998 39.0999 6.1998 38.9999 5.5998 38.8999C4.9998 38.7999 4.4998 38.5999 3.8998 38.3999C3.3998 38.0999 2.8998 37.7999 2.4998 37.3999C2.0998 36.9999 1.6998 36.4999 1.4998 35.9999C1.1998 35.4999 1.0998 34.8999 0.999805 34.2999C0.899805 33.6999 0.799805 33.0999 0.799805 32.3999V8.3999V7.4999C0.799805 6.8999 0.899805 6.1999 0.999805 5.5999C1.0998 5.0999 1.2998 4.4999 1.5998 3.9999C1.8998 3.4999 2.1998 2.9999 2.5998 2.5999C2.9998 2.1999 3.4998 1.8999 3.9998 1.5999C4.4998 1.2999 5.0998 1.1999 5.6998 1.0999C6.2998 0.999902 6.8998 0.899902 7.5998 0.899902H112.2C112.8 0.899902 113.4 0.999902 114.1 1.0999C114.7 1.1999 115.2 1.3999 115.8 1.5999C116.8 2.0999 117.7 2.9999 118.2 3.9999C118.5 4.4999 118.6 5.0999 118.7 5.5999C118.8 6.1999 118.9 6.8999 118.9 7.4999V32.3999C118.9 32.9999 118.8 33.5999 118.7 34.2999C118.6 34.8999 118.4 35.3999 118.2 35.9999C117.9 36.4999 117.6 36.9999 117.2 37.3999C116.8 37.7999 116.3 38.1999 115.8 38.3999C115.3 38.6999 114.7 38.8999 114.1 38.8999C113.5 38.9999 112.9 39.0999 112.2 39.0999H8.3998Z" fill="#121212"/>
<path d="M24.7998 20.3002C24.7998 18.6002 25.6998 17.0002 27.1998 16.1002C26.2998 14.8002 24.7998 14.0002 23.1998 13.9002C21.4998 13.7002 19.8998 14.9002 18.9998 14.9002C18.0998 14.9002 16.7998 13.9002 15.3998 13.9002C13.4998 14.0002 11.7998 15.0002 10.8998 16.6002C8.99984 19.9002 10.3998 24.9002 12.2998 27.6002C13.1998 28.9002 14.2998 30.4002 15.6998 30.4002C17.0998 30.3002 17.5998 29.5002 19.2998 29.5002C20.9998 29.5002 21.3998 30.4002 22.8998 30.4002C24.3998 30.4002 25.2998 29.1002 26.1998 27.7002C26.8998 26.8002 27.3998 25.7002 27.6998 24.6002C25.8998 24.0002 24.7998 22.2002 24.7998 20.3002ZM21.9998 12.2002C22.7998 11.2002 23.1998 10.0002 23.0998 8.7002C21.8998 8.8002 20.6998 9.4002 19.8998 10.4002C19.0998 11.3002 18.6998 12.5002 18.7998 13.8002C20.0998 13.8002 21.1998 13.2002 21.9998 12.2002ZM42.2998 27.1002H37.5998L36.4998 30.5002H34.4998L38.9998 18.1002H40.9998L45.4998 30.5002H43.4998L42.2998 27.1002ZM38.0998 25.6002H41.8998L39.9998 20.1002H39.8998L38.0998 25.6002ZM55.1998 26.0002C55.1998 28.8002 53.6998 30.6002 51.3998 30.6002C50.1998 30.7002 49.0998 30.0002 48.5998 29.0002V33.5002H46.6998V21.5002H48.4998V23.0002C49.0998 22.0002 50.1998 21.4002 51.3998 21.4002C53.5998 21.3002 55.1998 23.2002 55.1998 26.0002ZM53.1998 26.0002C53.1998 24.2002 52.2998 23.0002 50.7998 23.0002C49.3998 23.0002 48.3998 24.2002 48.3998 26.0002C48.3998 27.8002 49.3998 29.0002 50.7998 29.0002C52.2998 29.0002 53.1998 27.8002 53.1998 26.0002ZM65.0998 26.0002C65.0998 28.8002 63.5998 30.6002 61.2998 30.6002C60.0998 30.7002 58.9998 30.0002 58.4998 29.0002V33.5002H56.5998V21.5002H58.3998V23.0002C58.9998 22.0002 60.0998 21.4002 61.2998 21.4002C63.5998 21.3002 65.0998 23.2002 65.0998 26.0002ZM63.1998 26.0002C63.1998 24.2002 62.2998 23.0002 60.7998 23.0002C59.3998 23.0002 58.3998 24.2002 58.3998 26.0002C58.3998 27.8002 59.3998 29.0002 60.7998 29.0002C62.2998 29.0002 63.1998 27.8002 63.1998 26.0002ZM71.6998 27.0002C71.7998 28.2002 72.9998 29.0002 74.6998 29.0002C76.2998 29.0002 77.3998 28.2002 77.3998 27.1002C77.3998 26.1002 76.6998 25.6002 75.0998 25.2002L73.4998 24.8002C71.1998 24.3002 70.1998 23.2002 70.1998 21.5002C70.1998 19.4002 72.0998 17.9002 74.6998 17.9002C77.2998 17.9002 79.0998 19.4002 79.1998 21.5002H77.2998C77.1998 20.3002 76.1998 19.5002 74.6998 19.5002C73.1998 19.5002 72.1998 20.3002 72.1998 21.4002C72.1998 22.3002 72.8998 22.8002 74.4998 23.2002L75.8998 23.5002C78.3998 24.1002 79.4998 25.1002 79.4998 26.9002C79.4998 29.2002 77.6998 30.7002 74.6998 30.7002C71.8998 30.7002 70.0998 29.3002 69.9998 27.0002H71.6998ZM83.2998 19.3002V21.4002H84.9998V22.9002H83.2998V27.9002C83.2998 28.7002 83.5998 29.0002 84.3998 29.0002H84.9998V30.5002C84.6998 30.6002 84.2998 30.6002 83.9998 30.6002C82.1998 30.6002 81.4998 29.9002 81.4998 28.2002V23.0002H80.1998V21.5002H81.4998V19.4002H83.2998V19.3002ZM86.0998 26.0002C86.0998 23.2002 87.7998 21.4002 90.3998 21.4002C92.9998 21.4002 94.6998 23.2002 94.6998 26.0002C94.6998 28.9002 92.9998 30.6002 90.3998 30.6002C87.6998 30.6002 86.0998 28.8002 86.0998 26.0002ZM92.7998 26.0002C92.7998 24.0002 91.8998 22.9002 90.3998 22.9002C88.8998 22.9002 87.9998 24.0002 87.9998 26.0002C87.9998 28.0002 88.8998 29.1002 90.3998 29.1002C91.8998 29.1002 92.7998 27.9002 92.7998 26.0002ZM96.1998 21.4002H97.9998V23.0002C98.1998 22.0002 99.1998 21.3002 100.2 21.4002C100.4 21.4002 100.6 21.4002 100.8 21.5002V23.2002C100.5 23.1002 100.2 23.1002 99.9998 23.1002C98.9998 23.1002 98.0998 23.9002 98.0998 24.9002V30.6002H96.1998V21.4002ZM109.4 27.8002C109.2 29.4002 107.6 30.6002 105.5 30.6002C102.9 30.6002 101.2 28.8002 101.2 26.0002C101.2 23.2002 102.8 21.3002 105.4 21.3002C107.9 21.3002 109.5 23.0002 109.5 25.8002V26.4002H103.1V26.5002C103 27.8002 103.9 28.9002 105.2 29.1002H105.5C106.4 29.2002 107.3 28.7002 107.6 27.8002H109.4ZM103.1 25.1002H107.6C107.7 23.9002 106.7 22.9002 105.5 22.8002H105.3C104.1 22.8002 103.1 23.8002 103.1 25.1002Z" fill="white"/>
<path d="M37.8001 8.6999C39.3001 8.5999 40.5001 9.6999 40.6001 11.0999V11.5999C40.6001 13.4999 39.6001 14.5999 37.8001 14.5999H35.6001V8.5999L37.8001 8.6999ZM36.6001 13.8999H37.7001C38.7001 13.9999 39.6001 13.1999 39.7001 12.0999V11.6999C39.8001 10.6999 39.1001 9.6999 38.1001 9.5999H36.6001V13.8999ZM41.7001 12.3999C41.6001 11.1999 42.5001 10.1999 43.6001 10.0999C44.8001 9.9999 45.8001 10.8999 45.9001 11.9999V12.3999C46.0001 13.5999 45.2001 14.5999 44.0001 14.6999C42.8001 14.7999 41.8001 13.9999 41.7001 12.7999V12.3999ZM45.0001 12.3999C45.0001 11.3999 44.6001 10.8999 43.8001 10.8999C43.0001 10.8999 42.6001 11.4999 42.6001 12.3999C42.6001 13.3999 43.0001 13.9999 43.8001 13.9999C44.6001 13.9999 45.0001 13.3999 45.0001 12.3999ZM51.6001 14.6999H50.7001L49.8001 11.3999H49.7001L48.8001 14.6999H47.9001L46.7001 10.1999H47.6001L48.4001 13.5999H48.5001L49.4001 10.1999H50.3001L51.2001 13.5999H51.3001L52.1001 10.1999H53.0001L51.6001 14.6999ZM53.9001 10.1999H54.8001V10.8999H54.9001C55.1001 10.3999 55.7001 10.0999 56.2001 10.0999C57.0001 9.9999 57.7001 10.5999 57.8001 11.4999V14.6999H56.9001V11.9999C56.9001 11.2999 56.6001 10.8999 55.9001 10.8999C55.3001 10.8999 54.8001 11.2999 54.8001 11.8999V14.6999H53.9001V10.1999ZM59.1001 8.3999H60.0001V14.6999H59.1001V8.3999ZM61.2001 12.3999C61.1001 11.1999 61.9001 10.1999 63.1001 10.0999C64.3001 9.9999 65.3001 10.7999 65.4001 11.9999V12.3999C65.5001 13.5999 64.7001 14.5999 63.5001 14.6999C62.3001 14.7999 61.3001 13.9999 61.2001 12.7999V12.3999ZM64.6001 12.3999C64.6001 11.3999 64.2001 10.8999 63.4001 10.8999C62.6001 10.8999 62.2001 11.4999 62.2001 12.3999C62.2001 13.3999 62.6001 13.9999 63.4001 13.9999C64.1001 13.9999 64.6001 13.3999 64.6001 12.3999ZM66.4001 13.3999C66.4001 12.5999 67.0001 12.0999 68.1001 12.0999L69.3001 11.9999V11.5999C69.3001 11.0999 69.0001 10.8999 68.4001 10.8999C67.9001 10.8999 67.6001 11.0999 67.5001 11.3999H66.6001C66.7001 10.5999 67.4001 10.0999 68.4001 10.0999C69.5001 10.0999 70.2001 10.6999 70.2001 11.5999V14.6999H69.3001V14.0999H69.2001C68.9001 14.5999 68.4001 14.7999 67.8001 14.7999C67.1001 14.8999 66.4001 14.2999 66.3001 13.5999C66.4001 13.4999 66.4001 13.4999 66.4001 13.3999ZM69.3001 12.9999V12.5999L68.2001 12.6999C67.6001 12.6999 67.3001 12.9999 67.3001 13.2999C67.3001 13.6999 67.7001 13.8999 68.1001 13.8999C68.7001 14.0999 69.2001 13.6999 69.3001 12.9999C69.3001 13.0999 69.3001 13.0999 69.3001 12.9999ZM71.3001 12.3999C71.3001 10.9999 72.0001 10.0999 73.2001 10.0999C73.8001 10.0999 74.3001 10.3999 74.6001 10.8999H74.7001V8.3999H75.6001V14.6999H74.7001V13.9999H74.6001C74.3001 14.4999 73.8001 14.7999 73.2001 14.7999C72.1001 14.7999 71.3001 13.8999 71.3001 12.3999ZM72.3001 12.3999C72.3001 13.3999 72.7001 13.8999 73.5001 13.8999C74.3001 13.8999 74.7001 13.2999 74.7001 12.3999C74.7001 11.4999 74.2001 10.8999 73.5001 10.8999C72.7001 10.8999 72.3001 11.4999 72.3001 12.3999ZM79.2001 12.3999C79.1001 11.1999 79.9001 10.1999 81.1001 10.0999C82.3001 9.9999 83.3001 10.7999 83.4001 11.9999V12.3999C83.5001 13.5999 82.7001 14.5999 81.5001 14.6999C80.3001 14.7999 79.3001 13.9999 79.2001 12.7999V12.3999ZM82.6001 12.3999C82.6001 11.3999 82.2001 10.8999 81.4001 10.8999C80.6001 10.8999 80.2001 11.4999 80.2001 12.3999C80.2001 13.3999 80.6001 13.9999 81.4001 13.9999C82.1001 13.9999 82.6001 13.3999 82.6001 12.3999ZM84.7001 10.1999H85.6001V10.8999H85.7001C85.9001 10.3999 86.5001 10.0999 87.0001 10.0999C87.8001 9.9999 88.5001 10.5999 88.6001 11.4999V14.6999H87.7001V11.9999C87.7001 11.2999 87.4001 10.8999 86.7001 10.8999C86.1001 10.8999 85.6001 11.2999 85.6001 11.8999V14.6999H84.7001V10.1999ZM93.5001 9.0999V10.1999H94.5001V10.9999H93.5001V13.2999C93.5001 13.7999 93.7001 13.9999 94.1001 13.9999H94.4001V14.6999H93.9001C92.9001 14.6999 92.5001 14.3999 92.5001 13.4999V10.9999H91.8001V10.2999H92.5001V9.0999H93.5001ZM95.7001 8.3999H96.6001V10.8999H96.7001C96.9001 10.3999 97.5001 9.9999 98.1001 10.0999C98.9001 10.0999 99.6001 10.6999 99.7001 11.4999V14.6999H98.8001V11.9999C98.8001 11.2999 98.5001 10.8999 97.8001 10.8999C97.2001 10.8999 96.7001 11.2999 96.7001 11.8999V14.6999H95.8001V8.3999H95.7001ZM104.8 13.4999C104.6 14.2999 103.7 14.8999 102.9 14.7999C101.8 14.7999 100.8 13.8999 100.8 12.7999V12.4999C100.6 11.3999 101.4 10.2999 102.6 10.1999H102.9C104.2 10.1999 104.9 11.0999 104.9 12.4999V12.7999H101.7V12.8999C101.6 13.5999 102.1 14.0999 102.8 14.1999H102.9C103.3 14.2999 103.8 13.9999 104 13.6999H104.8V13.4999ZM101.6 11.9999H103.9C103.9 11.3999 103.5 10.8999 102.9 10.7999H102.8C102.2 10.8999 101.6 11.3999 101.6 11.9999Z" fill="white"/>
</g>
<defs>
<clipPath id="clip0_172_1475">
<rect width="119.7" height="40" fill="white"/>
</clipPath>
</defs>
</svg>
