<svg width="16" height="16" viewBox="0 0 16 16" fill="none" xmlns="http://www.w3.org/2000/svg">
<g clip-path="url(#clip0_151_571)">
<path d="M14.5265 0.666504H1.47317C1.0265 0.666504 0.666504 1.0265 0.666504 1.47317V14.5198C0.666504 14.9732 1.0265 15.3332 1.47317 15.3332H8.49984V9.65984H6.59984V7.43984H8.5065V5.8065C8.5065 3.91317 9.6665 2.87984 11.3532 2.87984C11.9198 2.87984 12.4932 2.9065 13.0598 2.9665V4.9465H11.8932C10.9732 4.9465 10.7932 5.37984 10.7932 6.0265V7.43984H12.9932L12.7065 9.65984H10.7798V15.3332H14.5198C14.9665 15.3332 15.3265 14.9732 15.3265 14.5265V1.47317C15.3332 1.0265 14.9732 0.666504 14.5265 0.666504Z" fill="white"/>
</g>
<defs>
<clipPath id="clip0_151_571">
<rect width="16" height="16" fill="white"/>
</clipPath>
</defs>
</svg>
