<svg width="16" height="16" viewBox="0 0 16 16" fill="none" xmlns="http://www.w3.org/2000/svg">
<g clip-path="url(#clip0_151_566)">
<path d="M14.0999 1.89986C12.6999 0.493196 10.8199 0.666529 7.99986 0.666529C5.35986 0.666529 3.3332 0.459863 1.89986 1.89986C0.493196 3.29986 0.666529 5.17986 0.666529 7.99986C0.666529 10.6332 0.459863 12.6665 1.89986 14.0999C3.29986 15.5065 5.17986 15.3332 7.99986 15.3332C10.6399 15.3332 12.6665 15.5399 14.0999 14.0999C15.4999 12.6999 15.3332 10.8199 15.3332 7.99986C15.3332 5.12653 15.4932 3.28653 14.0999 1.89986ZM13.1665 13.1665C12.2532 14.0799 11.0465 14.0132 7.99986 14.0132C5.13986 14.0132 3.7732 14.1132 2.8332 13.1665C1.8732 12.2065 1.98653 10.8265 1.98653 7.99986C1.98653 5.17986 1.88653 3.77986 2.8332 2.8332C3.7732 1.8932 5.06653 1.98653 7.99986 1.98653C10.8199 1.98653 12.2199 1.88653 13.1665 2.8332C14.0865 3.7532 14.0132 4.97986 14.0132 7.99986C14.0132 10.8265 14.1132 12.2265 13.1665 13.1665Z" fill="white"/>
<path d="M8.00007 4.23321C7.00099 4.2333 6.04288 4.63026 5.33649 5.33677C4.6301 6.04329 4.23331 7.00147 4.2334 8.00054C4.23349 8.99961 4.63045 9.95773 5.33696 10.6641C6.04347 11.3705 7.00166 11.7673 8.00073 11.7672C8.9998 11.7671 9.95792 11.3702 10.6643 10.6636C11.3707 9.95713 11.7675 8.99895 11.7674 7.99988C11.7673 7.00081 11.3703 6.04269 10.6638 5.3363C9.95732 4.62992 8.99914 4.23312 8.00007 4.23321ZM8.00007 10.4465C6.6534 10.4465 5.5534 9.35321 5.5534 7.99988C5.5534 6.64654 6.64673 5.55321 8.00007 5.55321C9.3534 5.55321 10.4467 6.64654 10.4467 7.99988C10.4467 9.34654 9.34673 10.4465 8.00007 10.4465ZM11.9134 3.20654C11.4267 3.20654 11.0334 3.59988 11.0334 4.08654C11.0334 4.57321 11.4267 4.96654 11.9134 4.96654C12.4001 4.96654 12.7934 4.57321 12.7934 4.08654C12.7934 3.59988 12.4001 3.20654 11.9134 3.20654Z" fill="white"/>
</g>
<defs>
<clipPath id="clip0_151_566">
<rect width="16" height="16" fill="white"/>
</clipPath>
</defs>
</svg>
