<svg width="16" height="16" viewBox="0 0 16 16" fill="none" xmlns="http://www.w3.org/2000/svg">
<path d="M15.3332 7.99984C15.3332 7.99984 15.3332 5.43317 15.0265 4.27984C14.8598 3.6465 14.3598 3.1465 13.7332 2.97317C12.5865 2.6665 7.99984 2.6665 7.99984 2.6665C7.99984 2.6665 3.41317 2.6665 2.2665 2.97317C1.63317 3.13984 1.13984 3.6465 0.973171 4.27984C0.666504 5.43317 0.666504 7.99984 0.666504 7.99984C0.666504 7.99984 0.693171 10.5665 0.999837 11.7198C1.1665 12.3532 1.6665 12.8532 2.29984 13.0265C3.43984 13.3332 8.0265 13.3332 8.0265 13.3332C8.0265 13.3332 12.6132 13.3332 13.7598 13.0265C14.3932 12.8598 14.8865 12.3532 15.0532 11.7198C15.3598 10.5665 15.3332 7.99984 15.3332 7.99984ZM6.6665 10.1798V5.81984L10.3332 7.99984L6.6665 10.1798Z" fill="white"/>
</svg>
